<svg width="1921" height="1080" viewBox="0 0 1921 1080" fill="none" xmlns="http://www.w3.org/2000/svg">
  <path opacity="0.1" d="M0.5 0V206.866L980.61 548.113L1108.94 285.241L823.5 0H0.5Z" fill="white"/>
  <path opacity="0.1" d="M0 1080H698.5L952 551.5L0 214.5V1080Z" fill="white"/>
  <path opacity="0.1" d="M1920.5 0H1270L1118 261.5L1819.5 1080H1920.5V0Z" fill="white"/>
  <path opacity="0.1" d="M1123.91 302.523L1005.11 543.733L1472.16 704.498L1123.91 302.523Z" fill="white"/>
  <path d="M1373.36 674.926C1378.67 674.926 1382.75 673.465 1385.88 670.666C1388.88 667.745 1390.37 664.216 1390.37 659.713V627.219H1405.21L1303.28 509.414C1302.46 511.361 1302.05 513.43 1302.05 515.742V548.114H1236.86L1276.6 478.502L1215.23 407.551L1144.6 532.293C1138.2 543.49 1134.93 553.712 1134.93 563.205V601.662L1208.01 627.098H1302.05V659.47C1302.05 659.591 1302.05 659.713 1302.05 659.835L1344.65 674.682H1373.36V674.926Z" fill="white"/>
  <path d="M1151.81 639.998H1207.88L1134.8 614.562V624.785C1134.8 634.886 1140.51 639.998 1151.81 639.998Z" fill="white"/>
  <path d="M1318.93 687.582H1344.65L1302.05 672.734C1302.19 676.994 1303.68 680.523 1306.54 683.322C1309.4 686.121 1313.62 687.582 1318.93 687.582Z" fill="white"/>
  <path d="M1276.47 447.464L1360.3 300.694C1362.2 297.286 1363.15 294.609 1363.15 292.54C1363.15 286.09 1357.44 282.926 1346.14 282.926H1283.27C1277.96 282.926 1273.74 283.656 1270.48 285.238C1267.21 286.698 1265.17 288.159 1264.22 289.498C1263.27 290.836 1261.63 293.757 1259.45 298.138L1215.09 376.513L1276.47 447.464Z" fill="white"/>
  <path d="M1406.7 517.081H1390.24V484.709C1390.24 480.327 1388.74 476.676 1385.74 473.756C1382.75 470.835 1378.53 469.496 1373.22 469.496H1318.79C1313.48 469.496 1309.4 470.956 1306.27 473.756C1304.91 475.094 1303.82 476.676 1303 478.38L1404.93 596.186H1406.43C1417.73 596.186 1423.44 591.074 1423.44 580.973V532.293C1423.71 522.192 1418 517.081 1406.7 517.081Z" fill="white"/>
  <path d="M1072.47 360.087C1067.84 353.881 1062.4 348.039 1056.14 342.563C1031.91 321.63 1000.75 311.164 962.645 311.164C924.541 311.164 893.376 321.63 869.153 342.563C844.929 363.495 832.953 390.512 832.953 423.615V497.365L925.902 530.954V423.493C925.902 412.053 929.168 402.926 935.836 396.111C942.504 389.417 951.35 386.01 962.782 386.01C973.669 386.01 982.651 389.417 989.455 396.111C996.259 402.926 999.662 411.932 999.662 423.493V509.413L1072.47 360.087Z" fill="white"/>
  <path d="M1118.88 558.703V416.801C1118.88 392.339 1112.21 371.163 1099.01 353.273L1025.93 502.721V550.184L1116.97 580.122C1118.19 573.185 1118.88 566.127 1118.88 558.703Z" fill="white"/>
  <path d="M927.943 603.003C920.458 601.786 914.334 598.622 909.435 593.754C902.767 587.182 899.501 578.176 899.501 566.615V531.687L806.552 498.098V566.128C806.552 599.23 818.664 626.248 842.752 647.18C857.177 659.594 874.052 668.356 893.377 673.467L927.943 603.003Z" fill="white"/>
  <path d="M999.39 556.996V566.002C999.39 577.442 996.124 586.569 989.455 593.141C982.787 599.713 973.941 602.999 962.51 602.999C959.516 602.999 956.658 602.755 954.072 602.268L919.642 672.733C932.842 676.14 947.132 677.844 962.51 677.844C1000.61 677.844 1031.78 667.378 1056 646.446C1074.78 630.259 1086.21 610.301 1090.43 586.813L999.39 556.996Z" fill="white"/>
  <path d="M711.29 536.798H694.823V504.426C694.823 500.045 693.326 496.394 690.333 493.473C687.339 490.552 683.12 489.213 677.812 489.213H623.377C618.07 489.213 613.987 490.674 610.857 493.473C607.863 496.394 606.366 499.923 606.366 504.426V536.798H541.179L603.236 428.12L518.18 398.547L448.775 521.099C442.379 532.295 439.113 542.518 439.113 552.011V600.691C439.113 610.792 444.829 615.903 456.124 615.903H606.23V648.275C606.23 652.656 607.727 656.307 610.721 659.228C613.715 662.149 617.933 663.488 623.241 663.488H677.676C682.984 663.488 687.066 662.027 690.196 659.228C693.19 656.307 694.687 652.778 694.687 648.275V615.903H711.154C722.449 615.903 728.165 610.792 728.165 600.691V552.011C728.301 541.909 722.585 536.798 711.29 536.798Z" fill="white"/>
  <path d="M668.83 439.559L730.342 331.854C732.248 328.447 733.2 325.769 733.2 323.7C733.2 317.25 727.485 314.086 716.189 314.086H653.316C648.009 314.086 643.79 314.816 640.524 316.398C637.258 317.859 635.217 319.319 634.264 320.658C633.311 321.996 631.678 324.917 629.501 329.298L583.911 409.864L668.83 439.559Z" fill="white"/>
</svg>
