<svg width="24" height="24" viewBox="0 0 24 24" fill="none" xmlns="http://www.w3.org/2000/svg">
<path fill-rule="evenodd" clip-rule="evenodd" d="M8 9H4C3.448 9 3 8.552 3 8V4C3 3.448 3.448 3 4 3H8C8.552 3 9 3.448 9 4V8C9 8.552 8.552 9 8 9Z" stroke="white" stroke-width="1.5" stroke-linecap="round" stroke-linejoin="round"/>
<path fill-rule="evenodd" clip-rule="evenodd" d="M8 21H4C3.448 21 3 20.552 3 20V16C3 15.448 3.448 15 4 15H8C8.552 15 9 15.448 9 16V20C9 20.552 8.552 21 8 21Z" stroke="white" stroke-width="1.5" stroke-linecap="round" stroke-linejoin="round"/>
<path fill-rule="evenodd" clip-rule="evenodd" d="M20 9H16C15.448 9 15 8.552 15 8V4C15 3.448 15.448 3 16 3H20C20.552 3 21 3.448 21 4V8C21 8.552 20.552 9 20 9Z" stroke="white" stroke-width="1.5" stroke-linecap="round" stroke-linejoin="round"/>
<path d="M7 12H9" stroke="white" stroke-width="1.5" stroke-linecap="round" stroke-linejoin="round"/>
<path d="M12 5V3" stroke="white" stroke-width="1.5" stroke-linecap="round" stroke-linejoin="round"/>
<path d="M16 12H13C12.448 12 12 11.552 12 11V9" stroke="white" stroke-width="1.5" stroke-linecap="round" stroke-linejoin="round"/>
<path d="M4 12H3" stroke="white" stroke-width="1.5" stroke-linecap="round" stroke-linejoin="round"/>
<path d="M15 18H13C12.448 18 12 18.448 12 19V21" stroke="white" stroke-width="1.5" stroke-linecap="round" stroke-linejoin="round"/>
<path d="M12 15H18" stroke="white" stroke-width="1.5" stroke-linecap="round" stroke-linejoin="round"/>
<path d="M21 15V20C21 20.552 20.552 21 20 21H15" stroke="white" stroke-width="1.5" stroke-linecap="round" stroke-linejoin="round"/>
<path d="M6 5.98914C5.997 5.98914 5.995 5.99114 5.995 5.99414C5.995 5.99714 5.997 5.99914 6 5.99914C6.003 5.99914 6.005 5.99714 6.005 5.99414C6.005 5.99114 6.003 5.98914 6 5.98914" stroke="white" stroke-width="1.5" stroke-linecap="round" stroke-linejoin="round"/>
<path d="M17.9951 5.995C17.9921 5.995 17.9901 5.997 17.9901 6C17.9901 6.003 17.9921 6.005 17.9951 6.005C17.9981 6.005 18.0001 6.003 18.0001 6C18.0001 5.997 17.9981 5.995 17.9951 5.995" stroke="white" stroke-width="1.5" stroke-linecap="round" stroke-linejoin="round"/>
<path d="M18.9951 11.995C18.9921 11.995 18.9901 11.997 18.9901 12C18.9901 12.003 18.9921 12.005 18.9951 12.005C18.9981 12.005 19.0001 12.003 19.0001 12C19.0001 11.997 18.9981 11.995 18.9951 11.995" stroke="white" stroke-width="1.5" stroke-linecap="round" stroke-linejoin="round"/>
<path d="M17.9951 17.995C17.9921 17.995 17.9901 17.997 17.9901 18C17.9901 18.003 17.9921 18.005 17.9951 18.005C17.9981 18.005 18.0001 18.003 18.0001 18C18.0001 17.997 17.9981 17.995 17.9951 17.995" stroke="white" stroke-width="1.5" stroke-linecap="round" stroke-linejoin="round"/>
<path d="M6.00488 17.995C6.00188 17.995 5.99988 17.997 5.99988 18C5.99988 18.003 6.00188 18.005 6.00488 18.005C6.00788 18.005 6.00988 18.003 6.00988 18C6.00988 17.997 6.00788 17.995 6.00488 17.995" stroke="white" stroke-width="1.5" stroke-linecap="round" stroke-linejoin="round"/>
</svg>
