<svg width="26" height="26" viewBox="0 0 26 26" fill="none" xmlns="http://www.w3.org/2000/svg">
<path fill-rule="evenodd" clip-rule="evenodd" d="M16.0014 20.4013V11.8607C16.0014 11.4359 15.8327 11.0285 15.5322 10.7282L13.2693 8.46529C12.969 8.16482 12.5616 7.99609 12.1368 7.99609H6.59749C5.71347 7.99609 4.99683 8.71274 4.99683 9.59676V20.4013C4.99683 21.2853 5.71347 22.0019 6.59749 22.0019H14.4007C15.2848 22.0019 16.0014 21.2853 16.0014 20.4013V20.4013Z" stroke="white" stroke-width="1.5" stroke-linecap="round" stroke-linejoin="round"/>
<path d="M16.0013 18.0019H19.4027C20.2867 18.0019 21.0034 17.2853 21.0034 16.4013V5.99693C21.0034 4.8919 20.1076 3.99609 19.0025 3.99609H11.5994C10.7154 3.99609 9.99878 4.71274 9.99878 5.59676V7.99776" stroke="white" stroke-width="1.5" stroke-linecap="round" stroke-linejoin="round"/>
<path d="M16.0014 11.9978H12.8001C12.3581 11.9978 11.9998 11.6394 11.9998 11.1974V7.99609" stroke="white" stroke-width="1.5" stroke-linecap="round" stroke-linejoin="round"/>
</svg>
