<svg width="34" height="34" viewBox="0 0 34 34" fill="none" xmlns="http://www.w3.org/2000/svg">
<path fill-rule="evenodd" clip-rule="evenodd" d="M20.0679 11.096C21.3008 11.7129 22.2999 12.7138 22.9144 13.9479C24.4969 17.0063 23.4882 20.7667 20.5874 22.6224C17.6867 24.4782 13.8497 23.8177 11.7364 21.0989C10.1597 19.0401 9.9045 16.2592 11.0801 13.9479C11.696 12.713 12.697 11.7119 13.932 11.096C14.1399 10.9936 14.386 11.0064 14.5822 11.1299C14.7783 11.2534 14.8962 11.4699 14.8937 11.7016V16.9972H19.1115V11.7016C19.1098 11.4714 19.2271 11.2566 19.4216 11.1334C19.6161 11.0102 19.8604 10.9961 20.0679 11.096Z" stroke="#323232" stroke-width="2" stroke-linecap="round" stroke-linejoin="round"/>
<circle cx="16.9999" cy="16.9972" r="12.005" stroke="#323232" stroke-width="2" stroke-linecap="round" stroke-linejoin="round"/>
<path d="M13.6655 22.7695V28.5346" stroke="#323232" stroke-width="2" stroke-linecap="round" stroke-linejoin="round"/>
<path d="M20.3349 22.7695V28.5333" stroke="#323232" stroke-width="2" stroke-linecap="round" stroke-linejoin="round"/>
</svg>
