<svg xmlns="http://www.w3.org/2000/svg" fill="none" viewBox="0 0 48 39"><g fill-rule="evenodd" clip-rule="evenodd" filter="url(#a)"><path fill="#CDBDB2" d="m17.17 26.581 4.16 1.122v-1.467l.34-.345h2.377v2.934H21.5l-3.141-1.38-1.19-.864Z"/><path fill="#CDBDB2" d="m30.755 26.581-4.076 1.122v-1.467l-.34-.345h-2.377v2.934h2.548l3.141-1.38 1.104-.864Z"/><path fill="#393939" d="m21.67 23.389-.34 2.848.425-.345h4.415l.51.345-.34-2.848-.68-.432-3.396.086-.594.346Z"/><path fill="#F89C35" d="m19.377 4.14 2.038 4.834.934 14.069h3.311l1.02-14.069 1.867-4.833h-9.17Z"/><path fill="#F89D35" d="m10.462 14.757-2.377 6.991 5.943-.345h3.82v-3.02l-.169-6.215-.85.69-6.367 1.9Z"/><path fill="#D87C30" d="m14.962 15.535 6.963.173-.764 3.625-3.312-.863-2.887-2.935Z"/><path fill="#EA8D3A" d="m14.962 15.621 2.887 2.762v2.762l-2.887-5.524Z"/><path fill="#F89D35" d="m17.85 18.469 3.395.863 1.104 3.711-.764.432-3.736-2.244v-2.762Z"/><path fill="#EB8F35" d="m17.85 21.23-.68 5.352 4.5-3.194-3.82-2.158Z"/><path fill="#EA8E3A" d="m21.925 15.707.424 7.336-1.273-3.754.849-3.582Z"/><path fill="#D87C30" d="m13.944 21.317 3.905-.087-.679 5.352-3.226-5.265Z"/><path fill="#EB8F35" d="m9.953 28.912 7.216-2.33-3.226-5.266-5.858.432 1.868 7.164Z"/><path fill="#E8821E" d="m21.415 8.977-3.65 3.107-2.803 3.452 6.963.26-.51-6.82Z"/><path fill="#DFCEC3" d="m17.17 26.584 4.5-3.193-.34 2.762v1.553l-3.056-.604-1.104-.518ZM30.755 26.584l-4.415-3.193.34 2.762v1.553l3.056-.604 1.019-.518Z"/><path fill="#393939" d="m20.056 17.262.934 1.985-3.311-.863 2.377-1.122Z"/><path fill="#E88F35" d="m9.868.086 11.547 8.89-1.952-4.834L9.868.086Z"/><path fill="#8E5A30" d="M9.868.086 8.34 4.833l.849 5.178-.595.346.85.777-.68.604.934.863-.594.518 1.358 1.726 6.368-1.985c3.113-2.532 4.642-3.827 4.585-3.884-.056-.058-3.906-3.021-11.547-8.89Z"/><path fill="#F89D35" d="m37.462 14.757 2.377 6.991-5.943-.345h-3.821v-3.02l.17-6.215.849.69 6.368 1.9Z"/><path fill="#D87C30" d="M32.961 15.535 26 15.708l.764 3.625 3.312-.863 2.886-2.935Z"/><path fill="#EA8D3A" d="m32.961 15.621-2.886 2.762v2.762l2.886-5.524Z"/><path fill="#F89D35" d="m30.075 18.469-3.396.863-1.104 3.711.764.432 3.736-2.244v-2.762Z"/><path fill="#EB8F35" d="m30.075 21.23.679 5.352-4.415-3.108 3.736-2.244Z"/><path fill="#EA8E3A" d="m26 15.707-.425 7.336 1.273-3.754L26 15.707Z"/><path fill="#D87C30" d="m33.98 21.317-3.905-.087.679 5.352 3.226-5.265Z"/><path fill="#EB8F35" d="m37.971 28.912-7.217-2.33 3.227-5.266 5.858.432-1.868 7.164Z"/><path fill="#E8821E" d="m26.509 8.977 3.65 3.107 2.802 3.452-6.962.26.51-6.82Z"/><path fill="#393939" d="m27.868 17.262-.934 1.985 3.311-.863-2.377-1.122Z"/><path fill="#E88F35" d="m38.056.086-11.547 8.89 1.952-4.834L38.056.086Z"/><path fill="#8E5A30" d="m38.056.086 1.528 4.747-.849 5.178.595.346-.85.777.68.604-.934.863.594.518-1.358 1.726-6.368-1.985c-3.114-2.532-4.642-3.827-4.585-3.884.056-.058 3.905-3.021 11.547-8.89Z"/></g><defs><filter id="a" width="194" height="210" x="-73" y="0" color-interpolation-filters="sRGB" filterUnits="userSpaceOnUse"><feFlood flood-opacity="0" result="BackgroundImageFix"/><feColorMatrix in="SourceAlpha" result="hardAlpha" values="0 0 0 0 0 0 0 0 0 0 0 0 0 0 0 0 0 0 127 0"/><feOffset dy="6.65"/><feGaussianBlur stdDeviation="2.693"/><feColorMatrix values="0 0 0 0 0 0 0 0 0 0 0 0 0 0 0 0 0 0 0.0888564 0"/><feBlend in2="BackgroundImageFix" result="effect1_dropShadow_1949:120738"/><feColorMatrix in="SourceAlpha" result="hardAlpha" values="0 0 0 0 0 0 0 0 0 0 0 0 0 0 0 0 0 0 127 0"/><feOffset dy="22.336"/><feGaussianBlur stdDeviation="9.046"/><feColorMatrix values="0 0 0 0 0 0 0 0 0 0 0 0 0 0 0 0 0 0 0.131144 0"/><feBlend in2="effect1_dropShadow_1949:120738" result="effect2_dropShadow_1949:120738"/><feColorMatrix in="SourceAlpha" result="hardAlpha" values="0 0 0 0 0 0 0 0 0 0 0 0 0 0 0 0 0 0 127 0"/><feOffset dy="100"/><feGaussianBlur stdDeviation="40.5"/><feColorMatrix values="0 0 0 0 0 0 0 0 0 0 0 0 0 0 0 0 0 0 0.22 0"/><feBlend in2="effect2_dropShadow_1949:120738" result="effect3_dropShadow_1949:120738"/><feBlend in="SourceGraphic" in2="effect3_dropShadow_1949:120738" result="shape"/></filter></defs></svg>
