<svg width="24" height="24" viewBox="0 0 24 24" fill="none" xmlns="http://www.w3.org/2000/svg">
<path d="M19.95 9.35156C19.95 8.93735 19.6142 8.60156 19.2 8.60156C18.7858 8.60156 18.45 8.93735 18.45 9.35156H19.95ZM3.60565 16.1092C3.36134 15.7747 2.89213 15.7016 2.55764 15.9459C2.22314 16.1902 2.15004 16.6594 2.39435 16.9939L3.60565 16.1092ZM2.87257 15.8125C2.46438 15.8828 2.19053 16.2708 2.2609 16.679C2.33128 17.0872 2.71924 17.361 3.12743 17.2907L2.87257 15.8125ZM5.7 15.6516L5.93829 16.3627C6.18386 16.2804 6.36961 16.0772 6.4296 15.8253C6.4896 15.5733 6.41535 15.3083 6.23322 15.1241L5.7 15.6516ZM4.8 4.85156L5.46058 4.49641C5.33797 4.26835 5.10639 4.11967 4.84798 4.1031C4.58958 4.08653 4.34091 4.20443 4.19018 4.41496L4.8 4.85156ZM10.2 9.35156L10.0229 10.0803C10.2422 10.1337 10.4739 10.0853 10.6537 9.94878C10.8334 9.81223 10.9421 9.60197 10.9496 9.37636L10.2 9.35156ZM18.3 6.65156L17.6738 7.06433C17.8126 7.27486 18.0479 7.40156 18.3 7.40156V6.65156ZM21 6.65156L21.624 7.06759C21.7775 6.83745 21.7918 6.54154 21.6613 6.29767C21.5307 6.0538 21.2766 5.90156 21 5.90156V6.65156ZM18.576 8.93554C18.3462 9.28018 18.4393 9.74584 18.784 9.9756C19.1286 10.2054 19.5943 10.1122 19.824 9.76759L18.576 8.93554ZM18.45 9.35156C18.45 12.3635 17.5901 14.8725 16.0501 16.6178C14.5204 18.3515 12.2593 19.4016 9.3 19.4016V20.9016C12.6407 20.9016 15.3296 19.7016 17.1749 17.6103C19.0099 15.5306 19.95 12.6396 19.95 9.35156H18.45ZM9.3 19.4016C7.64458 19.4016 6.5374 18.974 5.70459 18.3847C4.84887 17.7792 4.23772 16.9746 3.60565 16.1092L2.39435 16.9939C3.01928 17.8495 3.75813 18.8449 4.83816 19.6092C5.9411 20.3896 7.35542 20.9016 9.3 20.9016V19.4016ZM3.12743 17.2907C3.15119 17.2866 3.16958 17.2822 3.17593 17.2806C3.18458 17.2786 3.19158 17.2767 3.19578 17.2756C3.20418 17.2733 3.21102 17.2713 3.21457 17.2703C3.22212 17.2681 3.229 17.266 3.23345 17.2646C3.24301 17.2616 3.25419 17.258 3.26552 17.2544C3.28875 17.2469 3.32054 17.2365 3.35881 17.2239C3.43573 17.1985 3.54331 17.1629 3.67073 17.1205C3.92579 17.0357 4.26283 16.9232 4.5986 16.811C4.93446 16.6988 5.26937 16.5867 5.5203 16.5027C5.64577 16.4607 5.75026 16.4257 5.82338 16.4012C5.85994 16.3889 5.88866 16.3793 5.90825 16.3728C5.91804 16.3695 5.92555 16.367 5.93061 16.3653C5.93314 16.3644 5.93506 16.3638 5.93634 16.3634C5.93699 16.3631 5.93747 16.363 5.9378 16.3629C5.93796 16.3628 5.93808 16.3628 5.93816 16.3627C5.93821 16.3627 5.93824 16.3627 5.93826 16.3627C5.93828 16.3627 5.93829 16.3627 5.7 15.6516C5.46171 14.9404 5.4617 14.9404 5.46168 14.9404C5.46166 14.9404 5.46163 14.9405 5.46159 14.9405C5.46151 14.9405 5.46139 14.9405 5.46123 14.9406C5.46091 14.9407 5.46042 14.9409 5.45978 14.9411C5.4585 14.9415 5.45659 14.9421 5.45407 14.943C5.44902 14.9447 5.44152 14.9472 5.43175 14.9505C5.41219 14.957 5.3835 14.9666 5.34697 14.9789C5.2739 15.0033 5.16949 15.0383 5.0441 15.0803C4.79331 15.1642 4.45867 15.2762 4.12315 15.3884C3.78755 15.5005 3.4514 15.6127 3.19749 15.6971C3.07042 15.7394 2.96458 15.7745 2.88987 15.799C2.85233 15.8114 2.82377 15.8207 2.80469 15.8269C2.79486 15.8301 2.78939 15.8318 2.78715 15.8325C2.78569 15.833 2.78787 15.8323 2.79198 15.8311C2.79381 15.8305 2.79923 15.8289 2.80654 15.827C2.8102 15.826 2.81673 15.8243 2.82499 15.8223C2.83095 15.8208 2.84904 15.8165 2.87257 15.8125L3.12743 17.2907ZM6.23322 15.1241C3.48941 12.3502 3.28417 8.25715 5.40982 5.28816L4.19018 4.41496C1.64783 7.96597 1.89859 12.8749 5.16678 16.179L6.23322 15.1241ZM4.13942 5.20672C5.31949 7.40163 7.53919 9.47672 10.0229 10.0803L10.3771 8.62278C8.40881 8.14441 6.49451 6.41949 5.46058 4.49641L4.13942 5.20672ZM10.9496 9.37636C10.9872 8.24037 11.388 7.30124 12.0242 6.65112C12.6563 6.00511 13.5621 5.60156 14.7 5.60156V4.10156C13.1869 4.10156 11.8857 4.64802 10.9521 5.602C10.0225 6.55189 9.49883 7.86276 9.45041 9.32677L10.9496 9.37636ZM14.7 5.60156C15.5057 5.60156 16.0959 5.75447 16.5489 5.99623C17.0003 6.23713 17.3617 6.59092 17.6738 7.06433L18.9262 6.23879C18.5053 5.60021 17.9692 5.05399 17.2551 4.67289C16.5426 4.29265 15.6993 4.10156 14.7 4.10156V5.60156ZM18.3 7.40156H21V5.90156H18.3V7.40156ZM20.376 6.23554L18.576 8.93554L19.824 9.76759L21.624 7.06759L20.376 6.23554Z" fill="#fff"/>
</svg>
