<svg width="24" height="25" viewBox="0 0 24 25" fill="none" xmlns="http://www.w3.org/2000/svg">
<path d="M10.29 4.35923L1.82002 18.4992C1.64539 18.8017 1.55299 19.1445 1.55201 19.4937C1.55103 19.843 1.64151 20.1864 1.81445 20.4898C1.98738 20.7931 2.23675 21.046 2.53773 21.2231C2.83871 21.4002 3.18082 21.4954 3.53002 21.4992H20.47C20.8192 21.4954 21.1613 21.4002 21.4623 21.2231C21.7633 21.046 22.0127 20.7931 22.1856 20.4898C22.3585 20.1864 22.449 19.843 22.448 19.4937C22.4471 19.1445 22.3547 18.8017 22.18 18.4992L13.71 4.35923C13.5318 4.06533 13.2807 3.82235 12.9812 3.65371C12.6817 3.48508 12.3438 3.39648 12 3.39648C11.6563 3.39648 11.3184 3.48508 11.0188 3.65371C10.7193 3.82235 10.4683 4.06533 10.29 4.35923V4.35923Z" stroke="white" stroke-width="1.5" stroke-linecap="round" stroke-linejoin="round"/>
<path d="M12 9.5V13.5" stroke="white" stroke-width="1.5" stroke-linecap="round" stroke-linejoin="round"/>
<path d="M12 17.5H12.01" stroke="white" stroke-width="1.5" stroke-linecap="round" stroke-linejoin="round"/>
</svg>
